<svg width="25" height="24" viewBox="0 0 25 24" fill="none" xmlns="http://www.w3.org/2000/svg">
<g clip-path="url(#clip0_1503_19408)">
<path d="M19.1083 7.71456C21.0018 7.71456 22.5368 6.17954 22.5368 4.28599C22.5368 2.39245 21.0018 0.857422 19.1083 0.857422C17.2147 0.857422 15.6797 2.39245 15.6797 4.28599C15.6797 6.17954 17.2147 7.71456 19.1083 7.71456Z" stroke="white" stroke-width="1.5" stroke-linecap="round" stroke-linejoin="round"/>
<path d="M19.108 11.1426C14.8223 11.1426 14.8223 23.1426 14.8223 23.1426H23.3937C23.3937 23.1426 23.3937 11.1426 19.108 11.1426Z" stroke="white" stroke-width="1.5" stroke-linecap="round" stroke-linejoin="round"/>
<path d="M5.39341 7.71456C7.28696 7.71456 8.82199 6.17954 8.82199 4.28599C8.82199 2.39245 7.28696 0.857422 5.39341 0.857422C3.49987 0.857422 1.96484 2.39245 1.96484 4.28599C1.96484 6.17954 3.49987 7.71456 5.39341 7.71456Z" stroke="white" stroke-width="1.5" stroke-linecap="round" stroke-linejoin="round"/>
<path d="M5.39314 23.1426C1.10742 23.1426 1.10742 11.1426 1.10742 11.1426H9.67885C9.67885 11.1426 9.67885 23.1426 5.39314 23.1426Z" stroke="white" stroke-width="1.5" stroke-linecap="round" stroke-linejoin="round"/>
</g>
<defs>
<clipPath id="clip0_1503_19408">
<rect width="24" height="24" fill="white" transform="translate(0.25)"/>
</clipPath>
</defs>
</svg>
